#!OML:ASF Y:\EmotionMaleHayes\Project 1\Capture day 1\Session 1\Male1.ASF
:FULLY-SPECIFIED
:DEGREES
929
root 36.2469 16.232 14.8087 109.426 -82.9556 -101.687
lowerback 15.1239 4.53145 12.136
upperback 4.14389 7.60028 3.06991
thorax -2.80398 3.60916 -4.72472
lowerneck -22.8273 -5.18161 2.26579
upperneck 23.5412 -8.91404 2.23548
head 11.467 -3.55225 -1.01058
rclavicle -3.37934e-014 6.36111e-015
rhumerus -4.9076 33.6052 -74.6625
rradius 84.2883
rwrist -20.5809
rhand -23.3232 -33.0477
rfingers 7.12502
rthumb 3.13097 -63.0045
lclavicle -3.37934e-014 6.36111e-015
lhumerus -64.0459 -20.5769 98.749
lradius 43.2536
lwrist 16.1708
lhand -30.1386 -19.1427
lfingers 7.12502
lthumb -3.4513 10.8091
rfemur 16.4206 -4.67842 29.5963
rtibia 5.19803
rfoot -26.3871 11.8395
rtoes 12.275
lfemur -40.6688 13.1096 -2.10882
ltibia 31.668
lfoot -11.983 8.0895
ltoes -25.11
930
root 36.0095 16.1236 14.863 115.453 -82.6131 -107.822
lowerback 14.9883 4.75719 11.8035
upperback 4.19619 7.82163 2.99273
thorax -2.675 3.73064 -4.63775
lowerneck -22.5467 -5.29567 2.0548
upperneck 23.2972 -9.06377 2.55563
head 11.351 -3.61098 -0.872135
rclavicle 3.22031e-014 -2.06736e-014
rhumerus -3.66434 32.7566 -73.2136
rradius 86.1
rwrist -21.1663
rhand -23.9641 -33.0692
rfingers 7.12502
rthumb 2.51201 -63.0342
lclavicle 3.22031e-014 -2.06736e-014
lhumerus -65.6758 -20.7982 98.5689
lradius 43.8502
lwrist 16.1801
lhand -29.0839 -19.0801
lfingers 7.12502
lthumb -2.43273 10.8858
rfemur 17.6964 -3.56736 29.5895
rtibia 5.05143
rfoot -26.7764 11.5558
rtoes 11.9979
lfemur -40.9602 13.2365 -1.43023
ltibia 28.602
lfoot -12.4763 7.05607
ltoes -18.609
931
root 35.7559 16.0159 14.9281 120.742 -82.3515 -113.213
lowerback 14.7038 4.92936 11.51
upperback 4.29162 7.95363 2.86854
thorax -2.42233 3.81818 -4.58928
lowerneck -22.5532 -5.39184 1.64633
upperneck 23.3227 -9.16922 2.93613
head 11.4057 -3.64371 -0.688554
rclavicle -9.54166e-015 -1.59028e-015
rhumerus -2.35303 32.0428 -71.7154
rradius 87.7001
rwrist -21.6995
rhand -24.4162 -33.4139
rfingers 7.12502
rthumb 2.07543 -63.3835
lclavicle -9.54166e-015 -1.59028e-015
lhumerus -67.0866 -20.8737 98.2367
lradius 44.4361
lwrist 15.8208
lhand -28.4674 -18.749
lfingers 7.12502
lthumb -1.83737 11.2228
rfemur 18.7406 -2.80238 29.2342
rtibia 5.34845
rfoot -27.2738 11.6154
rtoes 10.9802
lfemur -41.3023 13.3413 -1.13606
ltibia 26.6519
lfoot -10.7881 6.15098
ltoes -22.2045
932
root 35.5381 15.9069 14.9815 117.976 -82.254 -110.509
lowerback 14.5419 4.72713 11.3956
upperback 4.4135 7.63583 3.03144
thorax -2.29263 3.66829 -4.2959
lowerneck -22.966 -5.43712 1.2095
upperneck 23.4852 -9.1463 3.09915
head 11.5767 -3.63433 -0.572018
rclavicle -1.03766e-013 3.57812e-014
rhumerus -1.02618 31.4296 -69.9466
rradius 89.3323
rwrist -22.9273
rhand -24.9085 -33.6324
rfingers 7.12502
rthumb 1.59999 -63.6062
lclavicle -1.03766e-013 3.57812e-014
lhumerus -67.9712 -20.6131 97.8205
lradius 44.8473
lwrist 15.5538
lhand -28.099 -18.6437
lfingers 7.12502
lthumb -1.4815 11.3309
rfemur 19.6227 -2.09739 29.8235
rtibia 5.62064
rfoot -27.7485 10.4378
rtoes 9.0273
lfemur -42.5471 13.0517 -0.97565
ltibia 25.4133
lfoot -10.6402 4.90872
ltoes -22.359
933
root 35.3304 15.7916 15.0205 113.811 -82.1913 -105.829
lowerback 14.0738 4.55356 11.3031
upperback 4.09687 7.38479 3.09192
thorax -2.4403 3.53378 -4.12824
lowerneck -22.6887 -5.6236 0.859376
upperneck 23.4799 -9.35168 3.33706
head 11.5562 -3.73389 -0.456154
rclavicle 2.62396e-014 9.54166e-015
rhumerus -1.58006 29.8383 -69.2589
rradius 91.2909
rwrist -23.596
rhand -23.6457 -33.8866
rfingers 7.12502
rthumb 2.81955 -63.8477
lclavicle 2.62396e-014 9.54166e-015
lhumerus -69.2911 -20.7706 97.6001
lradius 45.2426
lwrist 15.8017
lhand -27.769 -18.7283
lfingers 7.12502
lthumb -1.16282 11.2483
rfemur 19.9383 -1.11395 30.916
rtibia 5.82882
rfoot -28.0892 8.46751
rtoes 5.9427
lfemur -44.9284 13.2011 -1.27864
ltibia 25.5926
lfoot -11.419 3.20117
ltoes -24.8566
934
root 34.9932 15.7514 15.1265 124.909 -81.5449 -118.391
lowerback 14.7578 4.90345 11.3238
upperback 4.62109 7.85068 2.87468
thorax -2.13963 3.78775 -4.45411
lowerneck -22.468 -5.74444 0.63419
upperneck 23.4926 -9.47436 3.44412
head 11.5386 -3.8008 -0.395724
rclavicle -9.14409e-015 -3.18055e-014
rhumerus -1.26657 29.0721 -68.2061
rradius 92.5834
rwrist -24.7705
rhand -23.991 -33.8688
rfingers 7.12502
rthumb 2.48603 -63.8341
lclavicle -9.14409e-015 -3.18055e-014
lhumerus -70.3568 -20.8161 97.2967
lradius 45.4765
lwrist 16.0705
lhand -27.7336 -18.7547
lfingers 7.12502
lthumb -1.1286 11.222
rfemur 22.2874 -0.175663 29.7058
rtibia 6.5837
rfoot -28.1632 9.28173
rtoes 3.92517
lfemur -42.241 12.8303 -0.503811
ltibia 23.491
lfoot -11.5017 3.60671
ltoes -21.7103
